<svg xmlns="http://www.w3.org/2000/svg" width="16.664" height="16.664" viewBox="0 0 16.664 16.664">
  <g id="arrow" transform="translate(0 16.664) rotate(-90)">
    <path id="Path_3" data-name="Path 3" d="M8.332,0a8.332,8.332,0,1,0,8.332,8.332A8.332,8.332,0,0,0,8.332,0Z" fill="#143787"/>
    <path id="Path_4" data-name="Path 4" d="M97.883,69.331l-.646.648V65.8a1.8,1.8,0,1,0-3.592,0v4.173L93,69.326a1.664,1.664,0,0,0-2.3,0,1.637,1.637,0,0,0,0,2.31l3.982,3.993a1.075,1.075,0,0,0,1.524,0l3.982-3.993a1.637,1.637,0,0,0,0-2.31A1.664,1.664,0,0,0,97.883,69.331Z" transform="translate(-87.108 -61.794)" fill="#fafafa"/>
  </g>
</svg>
