<svg xmlns="http://www.w3.org/2000/svg" width="32" height="24" viewBox="0 0 32 24">
  <g id="email" transform="translate(0 -81)">
    <g id="Group_3" data-name="Group 3" transform="translate(0 81)">
      <path id="Path_1" data-name="Path 1" d="M29.188,81H2.813A2.959,2.959,0,0,0,0,84.086v17.829A2.959,2.959,0,0,0,2.813,105H29.188A2.959,2.959,0,0,0,32,101.914V84.086A2.959,2.959,0,0,0,29.188,81Zm-2.25,17.65a.881.881,0,0,1-1.322-.117L20.2,91.552l-3.74,2.341a.866.866,0,0,1-.929,0L11.8,91.552l-5.411,6.98a.881.881,0,0,1-1.321.117,1.1,1.1,0,0,1-.107-1.45l5.182-6.685-4.6-2.881a1.084,1.084,0,0,1-.35-1.4.894.894,0,0,1,1.279-.384L16,91.816l9.535-5.969a.894.894,0,0,1,1.279.384,1.084,1.084,0,0,1-.35,1.4l-4.6,2.881L27.044,97.2A1.1,1.1,0,0,1,26.937,98.65Z" transform="translate(0 -81)" fill="#143787"/>
    </g>
  </g>
</svg>
